<svg width="100" height="100" viewBox="0 0 100 100" xmlns="http://www.w3.org/2000/svg">
  <g id="smoke">
    <path d="M50 20 C65 15 85 25 80 45 C95 50 90 75 70 80 C60 95 30 90 25 75 C5 65 10 35 30 25 C40 10 45 15 50 20 Z" fill="#444444" opacity="0.8"/>
    <circle cx="25" cy="35" r="5" fill="#222222"/>
    <rect x="70" y="70" width="6" height="3" fill="#000000" transform="rotate(20 73 71.5)"/>
    <path d="M15 15 L25 25 L15 25 Z" fill="#333333"/>
  </g>

  <g id="fire">
    <path d="M50 10 L65 40 L95 25 L75 55 L90 85 L55 70 L50 95 L40 70 L10 85 L25 55 L5 25 L35 40 Z" fill="#FF4500"/>
    <path d="M50 30 L58 45 L75 40 L65 55 L75 70 L55 65 L50 80 L45 65 L25 70 L35 55 L25 40 L42 45 Z" fill="#FFD700"/>
    <circle cx="80" cy="20" r="2" fill="#FFA500"/>
    <circle cx="20" cy="80" r="2" fill="#FFA500"/>
  </g>

  <g id="flash">
    <circle cx="50" cy="50" r="25" fill="#FFFFFF"/>
    <path d="M50 5 L55 45 L95 50 L55 55 L50 95 L45 55 L5 50 L45 45 Z" fill="#FFFFE0" opacity="0.9"/>
    <circle cx="50" cy="50" r="12" fill="#FFFACD"/>
    <path d="M48 45 L52 45 L50 55 Z" fill="#FFFFFF"/>
  </g>
</svg>