<svg version="1.1" xmlns="http://www.w3.org/2000/svg" viewBox="0 0 100 100">
  
  <g id="base" stroke="black" stroke-width="3" fill="#8FBC8F">
    <rect x="15" y="25" width="18" height="65" rx="2" fill="#606060" />
    <line x1="15" y1="35" x2="33" y2="35" stroke="black" stroke-width="2" />
    <line x1="15" y1="45" x2="33" y2="45" stroke="black" stroke-width="2" />
    <line x1="15" y1="55" x2="33" y2="55" stroke="black" stroke-width="2" />
    <line x1="15" y1="65" x2="33" y2="65" stroke="black" stroke-width="2" />
    <line x1="15" y1="75" x2="33" y2="75" stroke="black" stroke-width="2" />

    <rect x="67" y="25" width="18" height="65" rx="2" fill="#606060" />
    <line x1="67" y1="35" x2="85" y2="35" stroke="black" stroke-width="2" />
    <line x1="67" y1="45" x2="85" y2="45" stroke="black" stroke-width="2" />
    <line x1="67" y1="55" x2="85" y2="55" stroke="black" stroke-width="2" />
    <line x1="67" y1="65" x2="85" y2="65" stroke="black" stroke-width="2" />
    <line x1="67" y1="75" x2="85" y2="75" stroke="black" stroke-width="2" />

    <rect x="33" y="30" width="34" height="55" fill="#b30000" />
    
    <rect x="38" y="75" width="6" height="6" fill="none" stroke-width="2"/>
    <rect x="47" y="75" width="6" height="6" fill="none" stroke-width="2"/>
    <rect x="56" y="75" width="6" height="6" fill="none" stroke-width="2"/>
  </g>

  <g id="damage">
    <path d="M 40 80 L 45 95 L 50 85 L 55 92 L 60 80" fill="#FF4500" stroke="none" opacity="0.9"/>
    <path d="M 45 80 L 48 88 L 50 82 L 52 88 L 55 80" fill="#FFD700" stroke="none" opacity="0.9"/>
    
    <circle cx="50" cy="70" r="15" fill="#222" opacity="0.5" stroke="none"/>
    <circle cx="60" cy="60" r="12" fill="#444" opacity="0.4" stroke="none"/>
    <circle cx="40" cy="65" r="10" fill="#111" opacity="0.3" stroke="none"/>
    
    <path d="M 35 40 L 45 50 L 35 60" stroke="black" stroke-width="2" fill="none"/>
  </g>

</svg>