<svg version="1.1" xmlns="http://www.w3.org/2000/svg" viewBox="0 0 100 100">
  
  <g id="base" stroke="black" stroke-width="3" fill="#8FBC8F">
    <rect x="15" y="25" width="18" height="65" rx="2" fill="#606060" />
    <line x1="15" y1="35" x2="33" y2="35" stroke="black" stroke-width="2" />
    <line x1="15" y1="45" x2="33" y2="45" stroke="black" stroke-width="2" />
    <line x1="15" y1="55" x2="33" y2="55" stroke="black" stroke-width="2" />
    <line x1="15" y1="65" x2="33" y2="65" stroke="black" stroke-width="2" />
    <line x1="15" y1="75" x2="33" y2="75" stroke="black" stroke-width="2" />

    <rect x="67" y="25" width="18" height="65" rx="2" fill="#606060" />
    <line x1="67" y1="35" x2="85" y2="35" stroke="black" stroke-width="2" />
    <line x1="67" y1="45" x2="85" y2="45" stroke="black" stroke-width="2" />
    <line x1="67" y1="55" x2="85" y2="55" stroke="black" stroke-width="2" />
    <line x1="67" y1="65" x2="85" y2="65" stroke="black" stroke-width="2" />
    <line x1="67" y1="75" x2="85" y2="75" stroke="black" stroke-width="2" />

    <rect x="33" y="30" width="34" height="55" fill="#556B2F" />
    
    <rect x="38" y="75" width="6" height="6" fill="none" stroke-width="2"/>
    <rect x="47" y="75" width="6" height="6" fill="none" stroke-width="2"/>
    <rect x="56" y="75" width="6" height="6" fill="none" stroke-width="2"/>
  </g>

  <g id="damage">
    <circle cx="50" cy="85" r="12" fill="black" opacity="0.7" stroke="none" />

    <path d="M 35 78 L 38 95 L 45 85 L 50 98 L 58 88 L 62 96 L 65 78 Z" fill="#FF4500" stroke="none" opacity="0.95"/>
    
    <path d="M 40 80 L 45 90 L 50 82 L 55 92 L 60 80 Z" fill="#FFD700" stroke="none" opacity="0.95"/>

    <circle cx="50" cy="65" r="18" fill="#111" opacity="0.7" stroke="none"/>
    <circle cx="65" cy="60" r="14" fill="#333" opacity="0.6" stroke="none"/>
    <circle cx="35" cy="60" r="12" fill="#222" opacity="0.5" stroke="none"/>
    
    <path d="M 35 35 L 45 42 L 40 50" stroke="black" stroke-width="2" fill="none" opacity="0.8"/>
  </g>

</svg>