<svg version="1.1" xmlns="http://www.w3.org/2000/svg" viewBox="0 0 100 100">
  <g id="layer-ground">
    <ellipse cx="50" cy="55" rx="46" ry="36" fill="#2b241f" /> <ellipse cx="48" cy="52" rx="40" ry="30" fill="#3b322c" />
    <path d="M25,65 L35,68 L32,75 Z" fill="#2F4F4F" />
    <path d="M65,45 L75,42 L72,50 Z" fill="#4d5966" />
    <path d="M15 75 Q 35 85 55 70 T 85 80" stroke="#1a1a1a" stroke-width="1.5" fill="none" opacity="0.6"/>
  </g>

  <g id="layer-damaged-heavy">
    <path d="M12,15 L88,8 L92,45 L80,88 L45,92 L8,82 Z" fill="#363d45" stroke="#000" stroke-width="3"/>
    
    <path d="M12,15 L30,35 L25,55 L40,70" stroke="black" stroke-width="2" fill="none" stroke-linejoin="round"/>
    <path d="M88,8 L70,30 L75,50 L60,85" stroke="black" stroke-width="2" fill="none" stroke-linejoin="round"/>
    
    <path d="M45,40 L55,38 L62,45 L58,55 L48,58 L40,50 Z" fill="#1a1a1a" stroke="#000" stroke-width="1"/>
    
    <circle cx="25" cy="75" r="8" fill="#5c4033" opacity="0.4" />
  </g>

  <g id="layer-damaged-light">
    <polygon points="4,4 96,6 94,94 6,96" fill="#4d5966" stroke="#000" stroke-width="3"/>
    
    <g stroke="black" stroke-width="1.2" fill="none" opacity="0.8">
      <path d="M30,40 L20,30 M30,40 L40,35 M30,40 L35,50 M30,40 L25,48" /> <path d="M70,65 L80,75 M70,65 L60,70 M70,65 L75,55 M70,65 L65,55" /> </g>
    
    <circle cx="20" cy="20" r="3" fill="#1a1a1a" />
    <circle cx="85" cy="80" r="2.5" fill="#1a1a1a" />
    
    <line x1="4" y1="4" x2="94" y2="94" stroke="black" stroke-width="2" opacity="0.3" />
  </g>

  <g id="layer-fresh">
    <rect x="2" y="2" width="96" height="96" fill="#4d5966" stroke="black" stroke-width="4"/>
    <g stroke="black" stroke-width="4" stroke-linecap="round">
      <line x1="10" y1="10" x2="90" y2="90" opacity="0.8"/>
      <line x1="90" y1="10" x2="10" y2="90" opacity="0.8"/>
    </g>
    <rect x="12" y="12" width="76" height="76" fill="none" stroke="black" stroke-width="1.5" opacity="0.4"/>
    <circle cx="10" cy="10" r="3.5" fill="#2F4F4F" stroke="black" stroke-width="1"/>
    <circle cx="90" cy="10" r="3.5" fill="#2F4F4F" stroke="black" stroke-width="1"/>
    <circle cx="10" cy="90" r="3.5" fill="#2F4F4F" stroke="black" stroke-width="1"/>
    <circle cx="90" cy="90" r="3.5" fill="#2F4F4F" stroke="black" stroke-width="1"/>
  </g>
</svg>